<svg width="38" height="38" viewBox="0 0 38 38" fill="none" xmlns="http://www.w3.org/2000/svg">
<path d="M5.56641 38H32.4336C35.5029 38 38 35.5029 38 32.4336V5.56641C38 2.49706 35.5029 0 32.4336 0H5.56641C2.49706 0 0 2.49706 0 5.56641V32.4336C0 35.5029 2.49706 38 5.56641 38ZM2.22656 5.56641C2.22656 3.72485 3.72485 2.22656 5.56641 2.22656H32.4336C34.2751 2.22656 35.7734 3.72485 35.7734 5.56641V32.4336C35.7734 34.2751 34.2751 35.7734 32.4336 35.7734H5.56641C3.72485 35.7734 2.22656 34.2751 2.22656 32.4336V5.56641Z" fill="#2B3541"/>
<path d="M19 29.0195C24.5247 29.0195 29.0195 24.5247 29.0195 19C29.0195 13.4753 24.5247 8.98047 19 8.98047C13.4753 8.98047 8.98047 13.4753 8.98047 19C8.98047 24.5247 13.4753 29.0195 19 29.0195ZM19 11.207C23.2971 11.207 26.793 14.7029 26.793 19C26.793 23.2971 23.2971 26.793 19 26.793C14.7029 26.793 11.207 23.2971 11.207 19C11.207 14.7029 14.7029 11.207 19 11.207Z" fill="#2B3541"/>
<path d="M30.1328 11.207C31.9744 11.207 33.4727 9.70874 33.4727 7.86719C33.4727 6.02563 31.9744 4.52734 30.1328 4.52734C28.2913 4.52734 26.793 6.02563 26.793 7.86719C26.793 9.70874 28.2913 11.207 30.1328 11.207ZM30.1328 6.75391C30.7466 6.75391 31.2461 7.25343 31.2461 7.86719C31.2461 8.48094 30.7466 8.98047 30.1328 8.98047C29.5191 8.98047 29.0195 8.48094 29.0195 7.86719C29.0195 7.25343 29.5191 6.75391 30.1328 6.75391Z" fill="#2B3541"/>
</svg>
