<svg width="78" height="24" viewBox="0 0 78 24" fill="none" xmlns="http://www.w3.org/2000/svg">
<path d="M52.7397 7.65382C52.3912 4.43466 50.3733 1.71627 47.4566 0.571677C44.5398 -0.572912 41.2195 0.035151 38.8715 2.09183C37.4589 0.857824 35.6245 0.124572 33.7167 0.0351509C31.442 -0.0721544 29.2957 0.696866 27.6631 2.21702C26.1405 3.62988 25.2049 5.57925 25.0215 7.68959C24.9298 8.74476 25.0398 9.79993 25.3884 10.9266L11.1532 10.8909C10.768 10.8909 10.4561 11.0697 10.2727 11.3737C10.0709 11.7135 10.0709 12.1428 10.2727 12.4826C10.4561 12.7866 10.768 12.9654 11.1532 12.9654L26.8926 13.0012C27.2595 13.0012 27.553 12.8402 27.7365 12.572C27.9382 12.2679 27.9749 11.8387 27.8098 11.481C26.5808 8.70899 27.0394 5.77598 29.0022 3.84448C30.2129 2.66413 31.8089 2.05606 33.4782 2.10972C35.2393 2.16337 36.927 2.96816 38.101 4.29159C38.2844 4.48832 38.5596 4.61351 38.8715 4.61351C39.1833 4.61351 39.4585 4.5062 39.6419 4.29159C41.458 2.25279 44.1913 1.53742 46.6494 2.4674C48.8141 3.29007 50.3733 5.34676 50.6301 7.70747C50.7035 8.38707 51.3272 8.72687 51.8959 8.67322C52.4462 8.60168 52.7948 8.19035 52.7397 7.65382Z" fill="#2A2A2A"/>
<path d="M7.55792 20.9239H5.0264C4.71455 20.9239 4.47607 20.6735 4.47607 20.3874V3.3616C4.47607 3.05757 4.7329 2.82507 5.0264 2.82507H7.57626C7.88811 2.82507 8.12659 3.07545 8.12659 3.3616V20.3874C8.10824 20.6735 7.86977 20.9239 7.55792 20.9239Z" fill="#2A2A2A"/>
<path d="M3.11853 18.7957H0.550329C0.25682 18.7957 0 18.5632 0 18.2591V5.43615C0 5.15001 0.238476 4.89963 0.550329 4.89963H3.11853C3.41204 4.89963 3.66886 5.13212 3.66886 5.43615V18.2591C3.66886 18.5632 3.43039 18.7957 3.11853 18.7957Z" fill="#2A2A2A"/>
<path d="M11.9972 22.766H9.46565C9.15379 22.766 8.89697 22.5156 8.89697 22.2116V1.50165C8.89697 1.19762 9.15379 0.947235 9.46565 0.947235H11.9972C12.309 0.947235 12.5658 1.19762 12.5658 1.50165V22.2294C12.5658 22.5335 12.309 22.766 11.9972 22.766Z" fill="#2A2A2A"/>
<path d="M66.7181 11.3738C66.5347 11.0697 66.2228 10.8909 65.8376 10.8909L50.9237 10.9267C50.5935 10.9267 50.1532 11.1055 49.9881 11.4632C48.3004 15.1116 44.8884 17.8478 42.4486 19.6005C41.3663 20.3695 40.284 21.0849 39.2016 21.7287L39.0916 21.7824C38.9265 21.8718 38.9265 21.8718 38.7797 21.8181C38.3578 21.6572 37.9359 21.371 37.5323 21.1028C37.3672 20.9955 37.2021 20.8882 37.0554 20.7809C35.9547 20.0834 35.0008 19.4217 34.1203 18.7599C32.3776 17.4186 30.9467 16.0773 29.736 14.6108C29.3874 14.1816 28.8371 14.1279 28.3968 14.4677C27.9566 14.8075 27.7548 15.4871 28.1951 16.0237C29.3691 17.4365 30.7633 18.7778 32.4693 20.1013C33.4599 20.8703 34.5055 21.6214 35.5878 22.3189C36.1381 22.6766 36.7252 23.0343 37.3305 23.392L37.4589 23.4635C37.8809 23.7139 38.3578 24 38.9265 24C39.0365 24 39.165 23.9821 39.2934 23.9642C39.752 23.8569 40.1922 23.5708 40.5958 23.3204C40.7059 23.2489 40.7976 23.1773 40.9077 23.1237C41.5497 22.7302 42.1918 22.301 42.8338 21.8718C44.6316 20.6378 46.1541 19.4217 47.5116 18.1519C49.3644 16.3992 50.7035 14.7002 51.6024 13.0012L65.8376 12.9655C66.2228 12.9655 66.5347 12.7866 66.7181 12.4826C66.9199 12.1428 66.9199 11.7136 66.7181 11.3738Z" fill="#FBF138"/>
<path d="M70.4419 20.9239H72.9918C73.3036 20.9239 73.5421 20.6735 73.5421 20.3874V3.36158C73.5421 3.05755 73.2853 2.82506 72.9918 2.82506H70.4419C70.1301 2.82506 69.8916 3.07544 69.8916 3.36158V20.3874C69.8916 20.6735 70.1301 20.9239 70.4419 20.9239Z" fill="#FBF138"/>
<path d="M74.8814 18.7957H77.4496C77.7431 18.7957 77.9999 18.5632 77.9999 18.2592V5.4362C77.9999 5.15005 77.7614 4.89967 77.4496 4.89967H74.8814C74.5879 4.89967 74.3311 5.13217 74.3311 5.4362V18.2592C74.3311 18.5632 74.5695 18.7957 74.8814 18.7957Z" fill="#FBF138"/>
<path d="M66.0028 22.766H68.5343C68.8461 22.766 69.1029 22.5156 69.1029 22.2116V1.50165C69.1029 1.19762 68.8461 0.947235 68.5343 0.947235H66.0028C65.6909 0.947235 65.4341 1.19762 65.4341 1.50165V22.2294C65.4341 22.5335 65.6909 22.766 66.0028 22.766Z" fill="#FBF138"/>
</svg>
